<?xml version="1.0" encoding="utf-8"?>
<!-- Generator: Adobe Illustrator 24.2.1, SVG Export Plug-In . SVG Version: 6.00 Build 0)  -->
<svg version="1.1" id="Layer_1" xmlns="http://www.w3.org/2000/svg" xmlns:xlink="http://www.w3.org/1999/xlink" x="0px" y="0px"
	 viewBox="0 0 320 112" style="enable-background:new 0 0 320 112;" xml:space="preserve">
<style type="text/css">
	.st0{fill:#FFFFFF;}
	.st1{fill:#FF560B;}
	.st2{fill:url(#SVGID_1_);}
	.st3{fill:url(#SVGID_2_);}
	.st4{fill:url(#SVGID_3_);}
	.st5{fill:url(#SVGID_4_);}
	.st6{fill:url(#SVGID_5_);}
	.st7{fill:url(#SVGID_6_);}
	.st8{fill:#808080;}
</style>
<g>
	<g>
		<path class="st0" d="M109.7,65.4v1.8H106v12c0,0.7,0.1,1.3,0.3,1.7c0.2,0.4,0.7,0.6,1.5,0.7c0.6,0,1.2,0,1.9-0.1v1.8
			c-0.3,0-0.6,0-1,0c-0.3,0-0.6,0-1,0c-1.5,0-2.5-0.3-3-0.8c-0.6-0.6-0.9-1.6-0.8-3.1V67.2h-3.1v-1.8h3.1V60h2.2v5.4H109.7z"/>
		<path class="st0" d="M114.4,77.3c0.2,0.8,0.6,1.6,1.1,2.3c0.5,0.7,1.1,1.2,1.8,1.7c0.7,0.4,1.6,0.7,2.7,0.7c1.6,0,2.8-0.4,3.7-1.2
			c0.9-0.8,1.5-1.9,1.9-3.3h2.2c-0.5,2-1.3,3.6-2.5,4.7s-3,1.7-5.2,1.7c-1.4,0-2.6-0.2-3.6-0.7s-1.9-1.2-2.5-2
			c-0.6-0.9-1.1-1.9-1.4-3s-0.5-2.3-0.5-3.6c0-1.2,0.2-2.3,0.5-3.5c0.3-1.1,0.8-2.1,1.4-3s1.5-1.6,2.5-2.1s2.2-0.8,3.6-0.8
			s2.6,0.3,3.7,0.9c1,0.6,1.8,1.3,2.5,2.3c0.6,0.9,1.1,2,1.4,3.2s0.4,2.4,0.3,3.7h-13.7C114.1,75.7,114.2,76.5,114.4,77.3z
			 M125.2,70.7c-0.3-0.8-0.6-1.4-1.1-2s-1.1-1.1-1.8-1.4c-0.7-0.4-1.5-0.5-2.3-0.5c-0.9,0-1.7,0.2-2.4,0.5c-0.7,0.4-1.3,0.8-1.8,1.4
			s-0.9,1.3-1.2,2c-0.3,0.8-0.5,1.6-0.6,2.4h11.5C125.6,72.2,125.4,71.4,125.2,70.7z"/>
		<path class="st0" d="M141.6,67.8c-0.8-0.8-1.9-1.1-3.4-1.1c-1,0-1.9,0.2-2.7,0.7c-0.8,0.4-1.4,1-2,1.7c-0.5,0.7-0.9,1.5-1.2,2.4
			s-0.4,1.8-0.4,2.8c0,0.9,0.1,1.9,0.4,2.8c0.3,0.9,0.7,1.7,1.2,2.4c0.5,0.7,1.2,1.3,2,1.7s1.7,0.7,2.7,0.7c0.7,0,1.3-0.1,1.9-0.4
			c0.6-0.3,1.1-0.6,1.6-1.1c0.5-0.4,0.8-1,1.1-1.6s0.5-1.3,0.6-2h2.2c-0.3,2.2-1.1,3.9-2.4,5.1c-1.3,1.2-2.9,1.8-5,1.8
			c-1.4,0-2.6-0.2-3.6-0.7s-1.9-1.2-2.6-2c-0.7-0.9-1.3-1.8-1.6-3c-0.4-1.1-0.6-2.4-0.6-3.6c0-1.3,0.2-2.5,0.6-3.6
			c0.4-1.1,0.9-2.1,1.6-3s1.6-1.5,2.6-2s2.3-0.8,3.6-0.8c1.9,0,3.5,0.5,4.9,1.5c1.3,1,2.1,2.5,2.4,4.6h-2.2
			C143,69.6,142.4,68.6,141.6,67.8z"/>
		<path class="st0" d="M150.8,58.6v9.9h0.1c0.4-1.1,1.2-2,2.2-2.6c1.1-0.7,2.2-1,3.5-1c1.2,0,2.3,0.2,3.1,0.5s1.5,0.8,2,1.4
			s0.9,1.3,1.1,2.2s0.3,1.8,0.3,2.9v11.5h-2.2V72.1c0-0.8-0.1-1.5-0.2-2.1c-0.1-0.7-0.4-1.2-0.7-1.7s-0.8-0.9-1.4-1.1
			c-0.6-0.3-1.3-0.4-2.2-0.4s-1.7,0.2-2.3,0.5c-0.7,0.3-1.3,0.7-1.7,1.3c-0.5,0.5-0.8,1.2-1.1,1.9c-0.3,0.7-0.4,1.6-0.4,2.4v10.4
			h-2.2V58.6H150.8z"/>
		<path class="st0" d="M168.5,79.6h2.9v3.7h-2.9V79.6z"/>
		<path class="st0" d="M187.1,68.9c-0.3-0.5-0.6-0.9-1-1.2c-0.4-0.3-0.9-0.6-1.5-0.7s-1.1-0.2-1.8-0.2c-0.5,0-1,0.1-1.5,0.2
			s-0.9,0.3-1.4,0.5c-0.4,0.2-0.7,0.6-1,1s-0.4,0.9-0.4,1.5c0,0.5,0.1,0.9,0.4,1.2c0.2,0.3,0.5,0.6,0.9,0.8c0.4,0.2,0.8,0.4,1.2,0.6
			c0.4,0.1,0.8,0.3,1.2,0.4l2.9,0.7c0.6,0.1,1.2,0.3,1.8,0.5s1.2,0.6,1.6,0.9c0.5,0.4,0.9,0.9,1.2,1.5s0.4,1.3,0.4,2
			c0,1-0.2,1.8-0.7,2.5c-0.4,0.7-1,1.2-1.7,1.7c-0.7,0.4-1.4,0.7-2.3,0.9c-0.9,0.2-1.7,0.3-2.5,0.3c-2.1,0-3.8-0.5-5.1-1.5
			s-2-2.6-2.2-4.8h2.2c0.1,1.5,0.6,2.6,1.6,3.3c1,0.7,2.2,1.1,3.6,1.1c0.5,0,1.1-0.1,1.6-0.2c0.6-0.1,1.1-0.3,1.6-0.6
			c0.5-0.3,0.9-0.6,1.2-1.1c0.3-0.4,0.5-1,0.5-1.6c0-0.5-0.1-1-0.3-1.3c-0.2-0.4-0.5-0.7-0.9-0.9c-0.4-0.2-0.8-0.4-1.3-0.6
			s-0.9-0.3-1.4-0.4l-2.8-0.6c-0.7-0.2-1.4-0.4-2-0.6s-1.1-0.5-1.6-0.9s-0.8-0.8-1.1-1.3s-0.4-1.2-0.4-1.9c0-0.9,0.2-1.7,0.6-2.3
			c0.4-0.6,0.9-1.2,1.6-1.6c0.6-0.4,1.4-0.7,2.2-0.9c0.8-0.2,1.6-0.3,2.4-0.3c0.9,0,1.7,0.1,2.5,0.3c0.8,0.2,1.5,0.6,2,1.1
			c0.6,0.5,1.1,1.1,1.4,1.8s0.5,1.6,0.6,2.5h-2.2C187.5,69.9,187.3,69.4,187.1,68.9z"/>
		<path class="st0" d="M200.5,65.4v1.8h-3.6v12c0,0.7,0.1,1.3,0.3,1.7s0.7,0.6,1.5,0.7c0.6,0,1.2,0,1.9-0.1v1.8c-0.3,0-0.6,0-1,0
			c-0.3,0-0.6,0-1,0c-1.5,0-2.5-0.3-3-0.8c-0.6-0.6-0.9-1.6-0.8-3.1V67.2h-3.1v-1.8h3.1V60h2.2v5.4H200.5z"/>
		<path class="st0" d="M216.1,83.2V80H216c-0.6,1.2-1.4,2.1-2.5,2.7s-2.3,0.9-3.6,0.9c-1.1,0-2.1-0.2-2.9-0.5
			c-0.8-0.3-1.4-0.8-1.9-1.3c-0.5-0.6-0.9-1.3-1.1-2.1c-0.2-0.8-0.3-1.8-0.3-2.8V65.4h2.2V77c0,1.6,0.4,2.8,1.1,3.7
			c0.7,0.8,1.9,1.2,3.6,1.2c0.9,0,1.8-0.2,2.4-0.6s1.2-0.9,1.7-1.6c0.4-0.7,0.8-1.4,1-2.3s0.3-1.7,0.3-2.6v-9.4h2.2v17.8H216.1z"/>
		<path class="st0" d="M235.9,83.2v-3.4h-0.1c-0.2,0.6-0.6,1.1-1,1.6s-1,0.9-1.5,1.2c-0.6,0.3-1.2,0.6-1.8,0.8
			c-0.7,0.2-1.3,0.3-2,0.3c-1.4,0-2.5-0.2-3.5-0.7s-1.8-1.2-2.5-2c-0.7-0.9-1.2-1.9-1.5-3s-0.5-2.3-0.5-3.6c0-1.3,0.2-2.5,0.5-3.6
			s0.8-2.1,1.5-3s1.5-1.5,2.5-2.1c1-0.5,2.2-0.8,3.5-0.8c0.7,0,1.3,0.1,2,0.2c0.6,0.2,1.2,0.4,1.8,0.7c0.6,0.3,1,0.7,1.5,1.2
			c0.4,0.5,0.8,1,1,1.7h0.1V58.6h2.2v24.7h-2.2V83.2z M223.9,77c0.2,0.9,0.6,1.7,1,2.4s1.1,1.3,1.8,1.7c0.7,0.4,1.6,0.7,2.7,0.7
			c1.2,0,2.1-0.2,2.9-0.7c0.8-0.4,1.4-1,1.9-1.7s0.9-1.5,1.1-2.4c0.2-0.9,0.3-1.8,0.3-2.7c0-0.9-0.1-1.8-0.3-2.7
			c-0.2-0.9-0.6-1.7-1.1-2.4c-0.5-0.7-1.1-1.3-1.9-1.7c-0.8-0.4-1.8-0.7-2.9-0.7c-1,0-1.9,0.2-2.7,0.7c-0.7,0.4-1.3,1-1.8,1.7
			s-0.8,1.5-1,2.4s-0.3,1.8-0.3,2.7C223.6,75.2,223.7,76.1,223.9,77z"/>
		<path class="st0" d="M244.2,58.6V62H242v-3.5L244.2,58.6L244.2,58.6z M244.2,65.4v17.8H242V65.4H244.2z"/>
		<path class="st0" d="M259.5,65.6c1,0.5,1.9,1.2,2.6,2c0.7,0.9,1.3,1.8,1.6,3c0.4,1.1,0.6,2.4,0.6,3.6c0,1.3-0.2,2.5-0.6,3.6
			s-0.9,2.1-1.6,3s-1.6,1.5-2.6,2s-2.3,0.7-3.6,0.7c-1.4,0-2.6-0.2-3.6-0.7s-1.9-1.2-2.6-2c-0.7-0.9-1.3-1.8-1.6-3
			c-0.4-1.1-0.6-2.4-0.6-3.6c0-1.3,0.2-2.5,0.6-3.6c0.4-1.1,0.9-2.1,1.6-3s1.6-1.5,2.6-2s2.3-0.8,3.6-0.8
			C257.3,64.9,258.5,65.1,259.5,65.6z M253.2,67.4c-0.8,0.4-1.4,1-2,1.7c-0.5,0.7-0.9,1.5-1.2,2.4s-0.4,1.8-0.4,2.8
			c0,0.9,0.1,1.9,0.4,2.8c0.3,0.9,0.7,1.7,1.2,2.4c0.5,0.7,1.2,1.3,2,1.7s1.7,0.7,2.7,0.7s1.9-0.2,2.7-0.7c0.8-0.4,1.4-1,2-1.7
			c0.5-0.7,0.9-1.5,1.2-2.4c0.3-0.9,0.4-1.8,0.4-2.8c0-0.9-0.1-1.9-0.4-2.8s-0.7-1.7-1.2-2.4c-0.5-0.7-1.2-1.3-2-1.7
			c-0.8-0.4-1.7-0.7-2.7-0.7C254.9,66.7,254,66.9,253.2,67.4z"/>
	</g>
	<g>
		<g>
			<path class="st0" d="M101.2,26h-2.4v-3.2h11.6c4.8,0,8.3,3.3,8.3,8.3s-3.4,8.4-8.3,8.4h-5.5v9.8h-3.7V26z M109.8,36.2
				c3.1,0,5-2,5-5.2s-1.9-5-5-5h-4.9v10.2H109.8z"/>
			<path class="st0" d="M134.3,22.3c7.6,0,13.6,5.9,13.6,13.5c0,7.8-5.9,13.8-13.6,13.8c-7.6,0-13.5-6.1-13.5-13.8
				C120.7,28.2,126.6,22.3,134.3,22.3z M134.3,46.1c5.3,0,9.7-4.5,9.7-10.3c0-5.6-4.3-10-9.7-10c-5.3,0-9.7,4.3-9.7,10
				C124.6,41.6,128.9,46.1,134.3,46.1z"/>
			<path class="st0" d="M150.7,46h2.6V26h-2.6v-3.2h8.7V26h-2.6v20h2.6v3.2h-8.7V46z"/>
			<path class="st0" d="M162.4,46h1.6c0.5,0,0.8-0.3,0.8-0.8V22.8h3.4L180,39.5c1,1.4,2.2,3.6,2.2,3.6h0.1c0,0-0.3-2.1-0.3-3.6V25.2
				c0-1.7,0.7-2.4,2.4-2.4h3.7V26h-1.6c-0.5,0-0.8,0.3-0.8,0.8v22.4h-3.4l-11.8-16.7c-1-1.4-2.2-3.6-2.2-3.6h-0.1
				c0,0,0.2,2.1,0.2,3.6v14.3c0,1.7-0.7,2.4-2.4,2.4h-3.8V46H162.4z"/>
			<path class="st0" d="M204.1,22.3c3.6,0,9.9,1.5,9.9,5.7v2.6h-3.4v-1.5c0-2.2-3.7-3.3-6.4-3.3c-5.3,0-9.4,4-9.4,9.9
				c0,5.8,4.2,10.4,9.5,10.4c5.2,0,8.3-3.6,8.3-3.6l2,2.7c0,0-3.7,4.4-10.4,4.4c-7.9,0-13.4-6.1-13.4-13.9
				C190.9,28.1,196.6,22.3,204.1,22.3z"/>
			<path class="st0" d="M219.7,26h-2.4v-3.2h15.5c1.7,0,2.4,0.7,2.4,2.4v3.3h-3.4v-1.7c0-0.6-0.3-0.8-0.8-0.8h-7.5v8.3h9.2v3.2h-9.2
				v7.7c0,0.5,0.3,0.8,0.8,0.8h7.7c0.5,0,0.8-0.3,0.8-0.8v-1.7h3.4v3.3c0,1.7-0.7,2.4-2.4,2.4h-11.7c-1.7,0-2.4-0.7-2.4-2.4
				L219.7,26L219.7,26z"/>
			<path class="st0" d="M238.5,46h1.6c0.5,0,0.8-0.3,0.8-0.8V22.8h3.4L256,39.5c1,1.4,2.2,3.6,2.2,3.6h0.1c0,0-0.3-2.1-0.3-3.6V25.2
				c0-1.7,0.7-2.4,2.4-2.4h3.7V26h-1.6c-0.5,0-0.8,0.3-0.8,0.8v22.4h-3.4l-11.8-16.7c-1-1.4-2.2-3.6-2.2-3.6h-0.1
				c0,0,0.2,2.1,0.2,3.6v14.3c0,1.7-0.7,2.4-2.4,2.4h-3.8V46H238.5z"/>
			<path class="st0" d="M280.5,22.3c7.6,0,13.6,5.9,13.6,13.5c0,7.8-5.9,13.8-13.6,13.8c-7.6,0-13.5-6.1-13.5-13.8
				C267,28.2,272.9,22.3,280.5,22.3z M280.5,46.1c5.3,0,9.7-4.5,9.7-10.3c0-5.6-4.3-10-9.7-10c-5.3,0-9.7,4.3-9.7,10
				C270.9,41.6,275.2,46.1,280.5,46.1z"/>
			<path class="st0" d="M305.4,26h-5.3c-0.5,0-0.8,0.3-0.8,0.8v1.7H296V25c0-1.7,0.6-2.2,2.2-2.2h18.2c1.7,0,2.2,0.6,2.2,2.2v3.5
				h-3.3v-1.7c0-0.6-0.3-0.8-0.8-0.8h-5.3v23.2h-3.7V26H305.4z"/>
		</g>
	</g>
	<g>
		<g>
			<path class="st1" d="M27.2,34.7L27.2,34.7L27.2,34.7z"/>
		</g>
		
			<linearGradient id="SVGID_1_" gradientUnits="userSpaceOnUse" x1="27.2" y1="79.3" x2="27.2" y2="79.3" gradientTransform="matrix(1 0 0 -1 0 114)">
			<stop  offset="0" style="stop-color:#BE6A6D"/>
			<stop  offset="0.6172" style="stop-color:#C07C68"/>
			<stop  offset="1" style="stop-color:#C87D69"/>
		</linearGradient>
		<path class="st2" d="M27.2,34.7L27.2,34.7L27.2,34.7z"/>
		
			<linearGradient id="SVGID_2_" gradientUnits="userSpaceOnUse" x1="27.2" y1="79.3" x2="27.2" y2="79.3" gradientTransform="matrix(1 0 0 -1 0 114)">
			<stop  offset="0" style="stop-color:#AD5081"/>
			<stop  offset="0.6172" style="stop-color:#B75C81"/>
			<stop  offset="1" style="stop-color:#BE6A6D"/>
		</linearGradient>
		<path class="st3" d="M27.2,34.7L27.2,34.7L27.2,34.7z"/>
		
			<linearGradient id="SVGID_3_" gradientUnits="userSpaceOnUse" x1="27.2" y1="79.3" x2="27.2" y2="79.3" gradientTransform="matrix(1 0 0 -1 0 114)">
			<stop  offset="0" style="stop-color:#BE6A6D"/>
			<stop  offset="0.6172" style="stop-color:#C07C68"/>
			<stop  offset="1" style="stop-color:#C87D69"/>
		</linearGradient>
		<path class="st4" d="M27.2,34.7L27.2,34.7L27.2,34.7z"/>
		
			<linearGradient id="SVGID_4_" gradientUnits="userSpaceOnUse" x1="27.2" y1="79.3" x2="27.2" y2="79.3" gradientTransform="matrix(1 0 0 -1 0 114)">
			<stop  offset="0" style="stop-color:#AD5081"/>
			<stop  offset="0.6172" style="stop-color:#B75C81"/>
			<stop  offset="1" style="stop-color:#BE6A6D"/>
		</linearGradient>
		<path class="st5" d="M27.2,34.7L27.2,34.7L27.2,34.7z"/>
		
			<linearGradient id="SVGID_5_" gradientUnits="userSpaceOnUse" x1="27.2" y1="79.3" x2="27.2" y2="79.3" gradientTransform="matrix(1 0 0 -1 0 114)">
			<stop  offset="0" style="stop-color:#BE6A6D"/>
			<stop  offset="0.6172" style="stop-color:#C07C68"/>
			<stop  offset="1" style="stop-color:#C87D69"/>
		</linearGradient>
		<path class="st6" d="M27.2,34.7L27.2,34.7L27.2,34.7z"/>
		
			<linearGradient id="SVGID_6_" gradientUnits="userSpaceOnUse" x1="27.2" y1="79.3" x2="27.2" y2="79.3" gradientTransform="matrix(1 0 0 -1 0 114)">
			<stop  offset="0" style="stop-color:#AD5081"/>
			<stop  offset="0.6172" style="stop-color:#B75C81"/>
			<stop  offset="1" style="stop-color:#BE6A6D"/>
		</linearGradient>
		<path class="st7" d="M27.2,34.7L27.2,34.7L27.2,34.7z"/>
	</g>
</g>
<g>
	<path class="st0" d="M57.9,14.3L54.5,4.1v37.4l6.8,20.4l12.2,40l12.6-6.2c0.3-0.2,0.5-0.6,0.3-0.9L68.1,55.1L57.9,14.3z"/>
</g>
<path class="st0" d="M37.4,82.3l3,28.6c1,0.1,2.1,0,3.1-0.1l21.6-2.6c0.7-0.1,1.4-0.3,2-0.7l-9.3-25.3l-17-20.3L27.2,34.7v27.2
	L37.4,82.3z"/>
<g>
	<path class="st8" d="M73.5,101.9l-12.2-40l-6.8-20.4L40.8,61.9l17.1,20.4l9.3,25.3c0.5-0.3,1.1-0.7,1.7-1.2
		C69.1,106.2,73.5,101.9,73.5,101.9z"/>
</g>
<path class="st1" d="M54.5,41.5V4.1l-5.8-2.9c-0.6-0.3-1.2-0.1-1.5,0.5l-2.7,5.5c-0.1,0.2-0.3,0.4-0.5,0.5l-6.1,3
	c-0.2,0.1-0.4,0.3-0.5,0.6L27.2,34.7l13.6,27.2L54.5,41.5z"/>
<path class="st1" d="M37.4,82.3L27.2,61.9V34.7L16.9,48.3L1.5,97.7c-0.2,0.6,0.1,1.2,0.7,1.4l36.2,11.5c0.5,0.2,1.1,0.3,1.7,0.3
	c0.1,0,0.2,0,0.3,0L37.4,82.3z"/>
</svg>
