<?xml version="1.0" encoding="utf-8"?>
<!-- Generator: Adobe Illustrator 24.2.1, SVG Export Plug-In . SVG Version: 6.00 Build 0)  -->
<svg version="1.1" id="Layer_1" xmlns="http://www.w3.org/2000/svg" xmlns:xlink="http://www.w3.org/1999/xlink" x="0px" y="0px"
	 viewBox="0 0 100 100" style="enable-background:new 0 0 100 100;" xml:space="preserve">
<style type="text/css">
	.st0{fill:#FFFFFF;}
	.st1{fill:#7C7C7C;}
	.st2{fill:#EF5023;}
	.st3{clip-path:url(#SVGID_2_);fill:url(#SVGID_3_);}
	.st4{clip-path:url(#SVGID_5_);fill:url(#SVGID_6_);}
	.st5{clip-path:url(#SVGID_8_);fill:url(#SVGID_9_);}
	.st6{clip-path:url(#SVGID_11_);fill:url(#SVGID_12_);}
	.st7{clip-path:url(#SVGID_14_);fill:url(#SVGID_15_);}
	.st8{clip-path:url(#SVGID_17_);fill:url(#SVGID_18_);}
</style>
<g>
	<path class="st0" d="M60.3,19.3l-2.5-7.5v27.5l5,15l9,29.4l9.3-4.6c0.3-0.1,0.4-0.4,0.2-0.7L67.8,49.3L60.3,19.3z"/>
	<path class="st0" d="M45.2,69.3l2.2,21c0.8,0,1.5,0,2.3-0.1l15.9-1.9c0.5-0.1,1-0.2,1.5-0.5l-6.8-18.6l-12.6-15l-10-20v20
		L45.2,69.3z"/>
	<path class="st1" d="M71.8,83.8l-9-29.4l-5-15l-10,15l12.6,15l6.8,18.6c0.4-0.2,0.8-0.5,1.3-0.9C68.5,86.9,71.8,83.8,71.8,83.8"/>
	<path class="st2" d="M57.7,39.3V11.8l-4.3-2.1c-0.4-0.2-0.9,0-1.1,0.4l-2,4c-0.1,0.2-0.2,0.3-0.4,0.4l-4.5,2.2
		c-0.2,0.1-0.3,0.2-0.4,0.4l-7.4,17.2l10,20L57.7,39.3z"/>
	<path class="st2" d="M45.2,69.3l-7.5-15v-20l-7.5,10L18.7,80.7c-0.1,0.4,0.1,0.9,0.5,1l26.7,8.4c0.4,0.1,0.8,0.2,1.2,0.2
		c0.1,0,0.2,0,0.2,0L45.2,69.3z"/>
	<g>
		<defs>
			<path id="SVGID_1_" d="M37.7,34.3L37.7,34.3L37.7,34.3z"/>
		</defs>
		<clipPath id="SVGID_2_">
			<use xlink:href="#SVGID_1_"  style="overflow:visible;"/>
		</clipPath>
		
			<linearGradient id="SVGID_3_" gradientUnits="userSpaceOnUse" x1="250.0035" y1="5632.6104" x2="250.0035" y2="5632.6104" gradientTransform="matrix(2.1661 0 0 -2.1661 -503.8884 12235.4023)">
			<stop  offset="0" style="stop-color:#AF6869"/>
			<stop  offset="0.6172" style="stop-color:#B47A66"/>
			<stop  offset="1" style="stop-color:#BB7C67"/>
		</linearGradient>
		<polygon class="st3" points="37.7,34.3 37.7,34.3 37.7,34.3 		"/>
	</g>
	<g>
		<defs>
			<path id="SVGID_4_" d="M37.7,34.3"/>
		</defs>
		<clipPath id="SVGID_5_">
			<use xlink:href="#SVGID_4_"  style="overflow:visible;"/>
		</clipPath>
		
			<linearGradient id="SVGID_6_" gradientUnits="userSpaceOnUse" x1="-1281.2496" y1="8740.0322" x2="-1281.2496" y2="8740.0322" gradientTransform="matrix(0.722 0 0 -0.722 962.7817 6345.0693)">
			<stop  offset="0" style="stop-color:#9E4D7B"/>
			<stop  offset="0.6172" style="stop-color:#A85B7C"/>
			<stop  offset="1" style="stop-color:#AF6869"/>
		</linearGradient>
		<path class="st4" d="M37.7,34.3"/>
	</g>
	<g>
		<defs>
			<path id="SVGID_7_" d="M37.7,34.3L37.7,34.3L37.7,34.3z"/>
		</defs>
		<clipPath id="SVGID_8_">
			<use xlink:href="#SVGID_7_"  style="overflow:visible;"/>
		</clipPath>
		
			<linearGradient id="SVGID_9_" gradientUnits="userSpaceOnUse" x1="250.0035" y1="5632.6104" x2="250.0035" y2="5632.6104" gradientTransform="matrix(2.1661 0 0 -2.1661 -503.8884 12235.4023)">
			<stop  offset="0" style="stop-color:#AF6869"/>
			<stop  offset="0.6172" style="stop-color:#B47A66"/>
			<stop  offset="1" style="stop-color:#BB7C67"/>
		</linearGradient>
		<polygon class="st5" points="37.7,34.3 37.7,34.3 37.7,34.3 		"/>
	</g>
	<g>
		<defs>
			<path id="SVGID_10_" d="M37.7,34.3"/>
		</defs>
		<clipPath id="SVGID_11_">
			<use xlink:href="#SVGID_10_"  style="overflow:visible;"/>
		</clipPath>
		
			<linearGradient id="SVGID_12_" gradientUnits="userSpaceOnUse" x1="-1281.2496" y1="8740.0322" x2="-1281.2496" y2="8740.0322" gradientTransform="matrix(0.722 0 0 -0.722 962.7817 6345.0693)">
			<stop  offset="0" style="stop-color:#9E4D7B"/>
			<stop  offset="0.6172" style="stop-color:#A85B7C"/>
			<stop  offset="1" style="stop-color:#AF6869"/>
		</linearGradient>
		<path class="st6" d="M37.7,34.3"/>
	</g>
	<g>
		<defs>
			<path id="SVGID_13_" d="M37.7,34.3L37.7,34.3L37.7,34.3z"/>
		</defs>
		<clipPath id="SVGID_14_">
			<use xlink:href="#SVGID_13_"  style="overflow:visible;"/>
		</clipPath>
		
			<linearGradient id="SVGID_15_" gradientUnits="userSpaceOnUse" x1="250.0035" y1="5632.6104" x2="250.0035" y2="5632.6104" gradientTransform="matrix(2.1661 0 0 -2.1661 -503.8884 12235.4023)">
			<stop  offset="0" style="stop-color:#AF6869"/>
			<stop  offset="0.6172" style="stop-color:#B47A66"/>
			<stop  offset="1" style="stop-color:#BB7C67"/>
		</linearGradient>
		<polygon class="st7" points="37.7,34.3 37.7,34.3 37.7,34.3 		"/>
	</g>
	<g>
		<defs>
			<path id="SVGID_16_" d="M37.7,34.3"/>
		</defs>
		<clipPath id="SVGID_17_">
			<use xlink:href="#SVGID_16_"  style="overflow:visible;"/>
		</clipPath>
		
			<linearGradient id="SVGID_18_" gradientUnits="userSpaceOnUse" x1="-1281.2496" y1="8740.0322" x2="-1281.2496" y2="8740.0322" gradientTransform="matrix(0.722 0 0 -0.722 962.7817 6345.0693)">
			<stop  offset="0" style="stop-color:#9E4D7B"/>
			<stop  offset="0.6172" style="stop-color:#A85B7C"/>
			<stop  offset="1" style="stop-color:#AF6869"/>
		</linearGradient>
		<path class="st8" d="M37.7,34.3"/>
	</g>
</g>
</svg>
